STARTFONT 2.1
FONT -misc-Custom-medium-r-normal--14-200-72-72-c-100-iso10646-1
SIZE 14 72 72
FONTBOUNDINGBOX 10 19 0 -5

STARTPROPERTIES 17
FAMILY_NAME "Custom"
FOUNDRY "misc"
SETWIDTH_NAME "Normal"
WEIGHT_NAME "Medium"
SLANT "R"
PIXEL_SIZE 14
POINT_SIZE 140
RESOLUTION_X 72
RESOLUTION_Y 72
SPACING "C"
AVERAGE_WIDTH 100
MIN_SPACE 10
WEIGHT 10
X_HEIGHT 10
QUAD_WIDTH 10
FONT_ASCENT 19
FONT_DESCENT 5
ENDPROPERTIES

CHARS 129

COMMENT ASCII

STARTCHAR null
ENCODING 0
SWIDTH 800 0
DWIDTH 10 0
BBX 8 15 0 0
BITMAP
FF
C3
A5
99
99
A5
C3
FF
C3
A5
99
99
A5
C3
FF
ENDCHAR

STARTCHAR space
ENCODING 32
SWIDTH 000 0
DWIDTH 10 0
BBX 0 0 0 0
BITMAP
ENDCHAR

STARTCHAR exclam
ENCODING 33
SWIDTH 200 0
DWIDTH 10 0
BBX 1 16 4 0
BITMAP
80
80
80
80
80
80
80
80
80
80
00
00
00
00
80
80
ENDCHAR

STARTCHAR quotedbl
ENCODING 34
SWIDTH 400 0
DWIDTH 10 0
BBX 4 5 3 12
BITMAP
90
90
90
90
90
ENDCHAR

STARTCHAR numbersign
ENCODING 35
SWIDTH 800 0
DWIDTH 10 0
BBX 8 15 1 0
BITMAP
24
24
24
24
FF
24
24
24
24
24
FF
24
24
24
24
ENDCHAR

STARTCHAR dollar
ENCODING 36
SWIDTH 600 0
DWIDTH 10 0
BBX 7 16 2 0
BITMAP
10
10
7C
93
90
90
90
7C
12
12
12
12
92
7C
10
10
ENDCHAR

STARTCHAR percent
ENCODING 37
SWIDTH 800 0
DWIDTH 10 0
BBX 8 16 1 0
BITMAP
01
E1
A2
E2
04
04
08
08
10
10
20
20
47
45
87
80
ENDCHAR


STARTCHAR ampersand
ENCODING 38
SWIDTH 800 0
DWIDTH 10 0
BBX 8 16 1 0
BITMAP
38
44
82
82
82
44
44
28
10
28
45
82
82
82
45
38
ENDCHAR

STARTCHAR quotesingle
ENCODING 39
SWIDTH 100 0
DWIDTH 10 0
BBX 1 5 5 12
BITMAP
80
80
80
80
80
ENDCHAR

STARTCHAR parenleft
ENCODING 40
SWIDTH 800 0
DWIDTH 10 0
BBX 8 20 1 -3
BITMAP
03
0C
10
20
40
40
40
80
80
80
80
80
80
40
40
40
20
10
0C
03
ENDCHAR

STARTCHAR parenright
ENCODING 41
SWIDTH 800 0
DWIDTH 10 0
BBX 8 20 1 -3
BITMAP
C0
30
08
04
02
02
02
01
01
01
01
01
01
02
02
02
04
08
30
C0
ENDCHAR

STARTCHAR asterisk
ENCODING 42
SWIDTH 700 0
DWIDTH 10 0
BBX 7 7 2 3
BITMAP
92
54
38
FF
38
54
92
ENDCHAR

STARTCHAR plus
ENCODING 43
SWIDTH 700 0
DWIDTH 10 0
BBX 7 7 2 3
BITMAP
10
10
10
FF
10
10
10
ENDCHAR

STARTCHAR comma
ENCODING 44
SWIDTH 200 0
DWIDTH 10 0
BBX 3 6 3 -3
BITMAP
20
20
20
20
40
80
ENDCHAR

STARTCHAR hyphen
ENCODING 45
SWIDTH 700 0
DWIDTH 10 0
BBX 7 1 2 6
BITMAP
FF
ENDCHAR

STARTCHAR period
ENCODING 46
SWIDTH 100 0
DWIDTH 10 0
BBX 1 2 4 0
BITMAP
80
80
ENDCHAR

STARTCHAR slash
ENCODING 47
SWIDTH 800 0
DWIDTH 10 0
BBX 8 16 1 0
BITMAP
01
01
02
02
04
04
08
08
10
10
20
20
40
40
80
80
ENDCHAR

COMMENT NUMBERS

STARTCHAR zero
ENCODING 48
SWIDTH 800 0
DWIDTH 10 0
BBX 8 14 2 0
BITMAP
3C
42
81
81
83
85
89
91
A1
C1
81
81
42
3C
ENDCHAR

STARTCHAR one
ENCODING 49
SWIDTH 600 0
DWIDTH 10 0
BBX 6 14 1 0
BITMAP
04
0C
14
24
44
04
04
04
04
04
04
04
04
04
ENDCHAR

STARTCHAR two
ENCODING 50
SWIDTH 800 0
DWIDTH 10 0
BBX 8 14 1 0
BITMAP
3C
42
81
81
01
01
02
04
08
10
20
40
80
FF
ENDCHAR

STARTCHAR three
ENCODING 51
SWIDTH 800 0
DWIDTH 10 0
BBX 8 14 1 0
BITMAP
3C
42
81
01
02
04
18
04
02
01
81
81
42
3C
ENDCHAR

STARTCHAR four
ENCODING 52
SWIDTH 800 0
DWIDTH 10 0
BBX 8 14 1 0
BITMAP
02
06
06
0A
0A
12
12
22
22
42
82
FF
02
02
ENDCHAR

STARTCHAR five
ENCODING 53
SWIDTH 800 0
DWIDTH 10 0
BBX 8 14 1 0
BITMAP
7E
80
80
80
80
80
7C
02
01
01
01
01
02
7C
ENDCHAR

STARTCHAR six
ENCODING 54
SWIDTH 800 0
DWIDTH 10 0
BBX 8 14 1 0
BITMAP
3C
42
81
81
80
80
BC
C2
81
81
81
81
42
3C
ENDCHAR

STARTCHAR seven
ENCODING 55
SWIDTH 800 0
DWIDTH 10 0
BBX 8 14 1 0
BITMAP
FF
01
01
02
02
02
04
04
04
08
08
08
10
10
ENDCHAR

STARTCHAR eight
ENCODING 56
SWIDTH 800 0
DWIDTH 10 0
BBX 8 14 1 0
BITMAP
3C
42
81
81
81
42
3C
42
81
81
81
81
42
3C
ENDCHAR

STARTCHAR nine
ENCODING 57
SWIDTH 800 0
DWIDTH 10 0
BBX 8 14 1 0
BITMAP
3C
42
81
81
81
81
43
3D
01
01
81
81
42
3C
ENDCHAR

COMMENT AFTER NUMBERS

STARTCHAR colon
ENCODING 58
SWIDTH 100 0
DWIDTH 10 0
BBX 1 11 4 0
BITMAP
80
80
00
00
00
00
00
00
00
80
80
ENDCHAR

STARTCHAR semicolon
ENCODING 59
SWIDTH 200 0
DWIDTH 10 0
BBX 3 14 3 -3
BITMAP
20
20
00
00
00
00
00
00
20
20
20
20
40
80
ENDCHAR

STARTCHAR less
ENCODING 60
SWIDTH 800 0
DWIDTH 10 0
BBX 8 16 1 -1
BITMAP
01
02
04
08
10
20
40
80
80
40
20
10
08
04
02
01
ENDCHAR

STARTCHAR equal
ENCODING 61
SWIDTH 800 0
DWIDTH 10 0
BBX 8 7 1 3
BITMAP
FF
00
00
00
00
00
FF
ENDCHAR

STARTCHAR greater
ENCODING 62
SWIDTH 800 0
DWIDTH 10 0
BBX 8 16 1 -1
BITMAP
80
40
20
10
08
04
02
01
01
02
04
08
10
20
40
80
ENDCHAR

STARTCHAR question
ENCODING 63
SWIDTH 800 0
DWIDTH 10 0
BBX 8 16 1 0
BITMAP
3C
42
81
81
01
01
02
04
08
08
08
08
00
00
08
08
ENDCHAR

STARTCHAR at
ENCODING 64
SWIDTH 800 0
DWIDTH 10 0
BBX 8 15 1 0
BITMAP
3C
42
81
99
A5
A5
A5
A5
A5
A5
A5
9A
80
42
3C
ENDCHAR

COMMENT UPPERCASE

STARTCHAR A
ENCODING 65
SWIDTH 800 0
DWIDTH 10 0
BBX 8 14 1 0
BITMAP
3C
42
81
81
81
81
FF
81
81
81
81
81
81
81
ENDCHAR

STARTCHAR B
ENCODING 66
SWIDTH 800 0
DWIDTH 10 0
BBX 8 14 1 0
BITMAP
7C
82
81
81
81
82
FC
82
81
81
81
81
82
FC
ENDCHAR

STARTCHAR C
ENCODING 67
SWIDTH 800 0
DWIDTH 10 0
BBX 8 14 1 0
BITMAP
3C
42
81
81
80
80
80
80
80
80
81
81
42
3C
ENDCHAR

STARTCHAR D
ENCODING 68
SWIDTH 800 0
DWIDTH 10 0
BBX 8 14 1 0
BITMAP
FC
82
81
81
81
81
81
81
81
81
81
81
82
FC
ENDCHAR

STARTCHAR E
ENCODING 69
SWIDTH 800 0
DWIDTH 10 0
BBX 8 14 1 0
BITMAP
FF
80
80
80
80
80
FC
80
80
80
80
80
80
FF
ENDCHAR

STARTCHAR F
ENCODING 70
SWIDTH 800 0
DWIDTH 10 0
BBX 8 14 1 0
BITMAP
FF
80
80
80
80
80
FC
80
80
80
80
80
80
80
ENDCHAR

STARTCHAR G
ENCODING 71
SWIDTH 800 0
DWIDTH 10 0
BBX 8 14 1 0
BITMAP
3C
42
81
81
80
80
80
9F
81
81
81
81
42
3C
ENDCHAR

STARTCHAR H
ENCODING 72
SWIDTH 800 0
DWIDTH 10 0
BBX 8 14 1 0
BITMAP
81
81
81
81
81
81
FF
81
81
81
81
81
81
81
ENDCHAR

STARTCHAR I
ENCODING 73
SWIDTH 700 0
DWIDTH 10 0
BBX 7 14 2 0
BITMAP
FE
10
10
10
10
10
10
10
10
10
10
10
10
FE
ENDCHAR

STARTCHAR J
ENCODING 74
SWIDTH 700 0
DWIDTH 10 0
BBX 7 14 2 0
BITMAP
02
02
02
02
02
02
02
02
02
02
82
82
44
3C
ENDCHAR

STARTCHAR K
ENCODING 75
SWIDTH 800 0
DWIDTH 10 0
BBX 8 14 1 0
BITMAP
80
81
82
84
88
90
A0
C0
A0
90
88
84
82
81
ENDCHAR

STARTCHAR L
ENCODING 76
SWIDTH 600 0
DWIDTH 10 0
BBX 6 14 3 0
BITMAP
80
80
80
80
80
80
80
80
80
80
80
80
80
FF
ENDCHAR

STARTCHAR M
ENCODING 77
SWIDTH 700 0
DWIDTH 10 0
BBX 7 14 2 0
BITMAP
82
82
C6
C6
AA
AA
92
92
82
82
82
82
82
82
ENDCHAR

STARTCHAR N
ENCODING 78
SWIDTH 800 0
DWIDTH 10 0
BBX 8 14 1 0
BITMAP
81
C1
C1
A1
A1
91
91
89
89
85
85
83
83
81
ENDCHAR

STARTCHAR O
ENCODING 79
SWIDTH 800 0
DWIDTH 10 0
BBX 8 14 1 0
BITMAP
3C
42
81
81
81
81
81
81
81
81
81
81
42
3C
ENDCHAR

STARTCHAR P
ENCODING 80
SWIDTH 800 0
DWIDTH 10 0
BBX 8 14 1 0
BITMAP
FC
82
81
81
81
81
81
82
FC
80
80
80
80
80
ENDCHAR

STARTCHAR Q
ENCODING 81
SWIDTH 800 0
DWIDTH 10 0
BBX 8 16 1 -2
BITMAP
3C
42
81
81
81
81
81
81
81
81
81
91
4A
3C
02
01
ENDCHAR

STARTCHAR R
ENCODING 82
SWIDTH 800 0
DWIDTH 10 0
BBX 8 14 1 0
BITMAP
FC
82
81
81
81
81
81
82
FC
A0
90
88
84
82
ENDCHAR

STARTCHAR S
ENCODING 83
SWIDTH 800 0
DWIDTH 10 0
BBX 8 14 1 0
BITMAP
3C
42
81
80
80
40
3C
02
01
01
81
81
42
3C
ENDCHAR

STARTCHAR T
ENCODING 84
SWIDTH 700 0
DWIDTH 10 0
BBX 7 14 2 0
BITMAP
FE
10
10
10
10
10
10
10
10
10
10
10
10
10
ENDCHAR

STARTCHAR U
ENCODING 85
SWIDTH 800 0
DWIDTH 10 0
BBX 8 14 1 0
BITMAP
81
81
81
81
81
81
81
81
81
81
81
81
42
3C
ENDCHAR

STARTCHAR V
ENCODING 86
SWIDTH 700 0
DWIDTH 10 0
BBX 7 14 2 0
BITMAP
82
82
82
82
82
82
44
44
44
28
28
28
10
10
ENDCHAR

STARTCHAR W
ENCODING 87
SWIDTH 700 0
DWIDTH 10 0
BBX 7 14 2 0
BITMAP
82
82
82
82
82
82
92
92
AA
AA
C6
C6
82
82
ENDCHAR

STARTCHAR X
ENCODING 88
SWIDTH 700 0
DWIDTH 10 0
BBX 7 14 2 0
BITMAP
82
82
44
44
28
28
10
10
28
28
44
44
82
82
ENDCHAR

STARTCHAR Y
ENCODING 89
SWIDTH 700 0
DWIDTH 10 0
BBX 7 14 2 0
BITMAP
82
82
44
44
28
28
10
10
10
10
10
10
10
10
ENDCHAR

STARTCHAR Z
ENCODING 90
SWIDTH 800 0
DWIDTH 10 0
BBX 8 14 1 0
BITMAP
FF
01
01
02
02
04
08
10
20
40
40
80
80
FF
ENDCHAR

COMMENT AFTER UPPERCASE

STARTCHAR bracketleft
ENCODING 91
SWIDTH 800 0
DWIDTH 10 0
BBX 6 20 2 -3
BITMAP
FC
80
80
80
80
80
80
80
80
80
80
80
80
80
80
80
80
80
80
FC
ENDCHAR

STARTCHAR backslash
ENCODING 92
SWIDTH 800 0
DWIDTH 10 0
BBX 8 16 1 0
BITMAP
80
80
40
40
20
20
10
10
08
08
04
04
02
02
01
01
ENDCHAR

STARTCHAR bracketright
ENCODING 93
SWIDTH 800 0
DWIDTH 10 0
BBX 6 20 2 -3
BITMAP
FF
04
04
04
04
04
04
04
04
04
04
04
04
04
04
04
04
04
04
FF
ENDCHAR

STARTCHAR asciicircum
ENCODING 94
SWIDTH 700 0
DWIDTH 10 0
BBX 7 4 2 13
BITMAP
10
28
44
82
ENDCHAR

STARTCHAR underscore
ENCODING 95
SWIDTH 800 0
DWIDTH 10 0
BBX 8 1 1 0
BITMAP
FF
ENDCHAR

STARTCHAR grave
ENCODING 96
SWIDTH 300 0
DWIDTH 10 0
BBX 3 4 3 13
BITMAP
80
40
20
10
ENDCHAR

COMMENT LOWERCASE

STARTCHAR a
ENCODING 97
SWIDTH 800 0
DWIDTH 10 0
BBX 8 10 1 0
BITMAP
3C
42
01
01
3F
41
81
81
43
3D
ENDCHAR

STARTCHAR b
ENCODING 98
SWIDTH 800 0
DWIDTH 10 0
BBX 8 16 1 0
BITMAP
80
80
80
80
80
80
BC
C2
81
81
81
81
81
81
42
3C
ENDCHAR

STARTCHAR c
ENCODING 99
SWIDTH 800 0
DWIDTH 10 0
BBX 8 10 1 0
BITMAP
3C
42
80
80
80
80
80
80
42
3C
ENDCHAR

STARTCHAR d
ENCODING 100
SWIDTH 800 0
DWIDTH 10 0
BBX 8 16 1 0
BITMAP
01
01
01
01
01
01
3D
43
81
81
81
81
81
81
43
3D
ENDCHAR

STARTCHAR e
ENCODING 101
SWIDTH 800 0
DWIDTH 10 0
BBX 8 10 1 0
BITMAP
3C
42
81
81
81
FE
80
80
42
3C
ENDCHAR

STARTCHAR f
ENCODING 102
SWIDTH 800 0
DWIDTH 10 0
BBX 8 16 1 0
BITMAP
0F
10
20
20
20
20
FE
20
20
20
20
20
20
20
20
20
ENDCHAR

STARTCHAR g
ENCODING 103
SWIDTH 800 0
DWIDTH 10 0
BBX 8 14 1 -4
BITMAP
3C
42
81
81
81
81
81
81
43
3D
01
01
42
3C
ENDCHAR

STARTCHAR h
ENCODING 104
SWIDTH 800 0
DWIDTH 10 0
BBX 8 16 1 0
BITMAP
80
80
80
80
80
80
FC
82
81
81
81
81
81
81
81
81
ENDCHAR

STARTCHAR i
ENCODING 105
SWIDTH 100 0
DWIDTH 10 0
BBX 5 14 3 0
BITMAP
20
20
00
00
60
20
20
20
20
20
20
20
20
FF
ENDCHAR

STARTCHAR j
ENCODING 106
SWIDTH 600 0
DWIDTH 10 0
BBX 6 18 2 -4
BITMAP
04
04
00
00
04
04
04
04
04
04
04
04
04
04
84
84
48
30
ENDCHAR

STARTCHAR k
ENCODING 107
SWIDTH 800 0
DWIDTH 10 0
BBX 7 16 2 0
BITMAP
80
80
80
80
80
80
84
88
90
A0
C0
A0
90
88
84
82
ENDCHAR

STARTCHAR l
ENCODING 108
SWIDTH 600 0
DWIDTH 10 0
BBX 6 16 2 0
BITMAP
80
80
80
80
80
80
80
80
80
80
80
80
80
80
44
38
ENDCHAR

STARTCHAR m
ENCODING 109
SWIDTH 700 0
DWIDTH 10 0
BBX 7 10 2 0
BITMAP
6C
92
92
92
92
92
82
82
82
82
ENDCHAR

STARTCHAR n
ENCODING 110
SWIDTH 800 0
DWIDTH 10 0
BBX 8 10 1 0
BITMAP
BC
C2
81
81
81
81
81
81
81
81
ENDCHAR

STARTCHAR o
ENCODING 111
SWIDTH 800 0
DWIDTH 10 0
BBX 8 10 1 0
BITMAP
3C
42
81
81
81
81
81
81
42
3C
ENDCHAR

STARTCHAR p
ENCODING 112
SWIDTH 800 0
DWIDTH 10 0
BBX 8 14 1 -4
BITMAP
3C
42
81
81
81
81
81
81
C2
BC
80
80
80
80
ENDCHAR

STARTCHAR q
ENCODING 113
SWIDTH 800 0
DWIDTH 10 0
BBX 8 14 1 -4
BITMAP
3C
42
81
81
81
81
81
81
43
3D
01
01
01
01
ENDCHAR

STARTCHAR r
ENCODING 114
SWIDTH 400 0
DWIDTH 10 0
BBX 4 10 4 0
BITMAP
B0
C0
80
80
80
80
80
80
80
80
ENDCHAR

STARTCHAR s
ENCODING 115
SWIDTH 800 0
DWIDTH 10 0
BBX 8 10 1 0
BITMAP
3E
40
80
40
3C
02
01
01
02
7C
ENDCHAR

STARTCHAR t
ENCODING 116
SWIDTH 800 0
DWIDTH 10 0
BBX 8 16 1 0
BITMAP
20
20
20
20
20
20
FE
20
20
20
20
20
20
20
11
0E
ENDCHAR

STARTCHAR u
ENCODING 117
SWIDTH 800 0
DWIDTH 10 0
BBX 8 10 1 0
BITMAP
81
81
81
81
81
81
81
81
43
3D
ENDCHAR

STARTCHAR v
ENCODING 118
SWIDTH 800 0
DWIDTH 10 0
BBX 8 10 1 0
BITMAP
81
81
81
42
42
42
24
24
24
18
ENDCHAR

STARTCHAR w
ENCODING 119
SWIDTH 700 0
DWIDTH 10 0
BBX 7 10 2 0
BITMAP
82
82
82
82
82
92
92
92
92
6C
ENDCHAR

STARTCHAR x
ENCODING 120
SWIDTH 800 0
DWIDTH 10 0
BBX 8 10 1 0
BITMAP
81
81
42
24
18
18
24
42
81
81
ENDCHAR

STARTCHAR y
ENCODING 121
SWIDTH 800 0
DWIDTH 10 0
BBX 8 14 1 -4
BITMAP
81
81
81
81
81
81
81
81
43
3D
01
01
42
3C
ENDCHAR

STARTCHAR z
ENCODING 122
SWIDTH 800 0
DWIDTH 10 0
BBX 8 10 1 0
BITMAP
FE
01
02
04
08
10
20
40
80
7F
ENDCHAR

COMMENT AFTER LOWERCASE

STARTCHAR braceleft
ENCODING 123
SWIDTH 800 0
DWIDTH 10 0
BBX 8 21 1 -3
BITMAP
0F
10
20
20
20
20
20
20
20
20
C0
20
20
20
20
20
20
20
20
10
0F
ENDCHAR

STARTCHAR bar
ENCODING 124
SWIDTH 100 0
DWIDTH 10 0
BBX 1 18 5 0
BITMAP
80
80
80
80
80
80
80
80
80
80
80
80
80
80
80
80
80
80
ENDCHAR

STARTCHAR braceright
ENCODING 125
SWIDTH 800 0
DWIDTH 10 0
BBX 8 21 1 -3
BITMAP
F0
08
04
04
04
04
04
04
04
04
03
04
04
04
04
04
04
04
04
08
F0
ENDCHAR

STARTCHAR tilde
ENCODING 126
SWIDTH 800 0
DWIDTH 10 0
BBX 8 2 1 7
BITMAP
71
8E
ENDCHAR

COMMENT POLISH LOWER

STARTCHAR uni0105
ENCODING 261
SWIDTH 800 0
DWIDTH 10 0
BBX 8 13 1 -3
BITMAP
3C
42
01
01
3F
41
81
81
43
3D
02
02
01
ENDCHAR

STARTCHAR uni0107
ENCODING 263
SWIDTH 800 0
DWIDTH 10 0
BBX 8 14 1 0
BITMAP
04
08
10
00
3C
42
80
80
80
80
80
80
42
3C
ENDCHAR

STARTCHAR uni0119
ENCODING 281
SWIDTH 800 0
DWIDTH 10 0
BBX 8 13 1 -3
BITMAP
3C
42
81
81
81
FE
80
80
42
3C
04
04
02
ENDCHAR

STARTCHAR uni142
ENCODING 322
SWIDTH 800 0
DWIDTH 10 0
BBX 8 16 1 0
BITMAP
20
20
20
20
20
28
30
20
60
A0
20
20
20
20
11
0E
ENDCHAR

STARTCHAR uni144
ENCODING 324
SWIDTH 800 0
DWIDTH 10 0
BBX 8 14 1 0
BITMAP
04
08
10
00
BC
C2
81
81
81
81
81
81
81
81
ENDCHAR

STARTCHAR uniF3
ENCODING 243
SWIDTH 800 0
DWIDTH 10 0
BBX 8 14 1 0
BITMAP
04
08
10
00
3C
42
81
81
81
81
81
81
42
3C
ENDCHAR

STARTCHAR uni15B
ENCODING 347
SWIDTH 800 0
DWIDTH 10 0
BBX 8 14 1 0
BITMAP
04
08
10
00
FE
01
02
04
08
10
20
40
80
7F
ENDCHAR

STARTCHAR uni17A
ENCODING 378
SWIDTH 800 0
DWIDTH 10 0
BBX 8 14 1 0
BITMAP
04
08
10
00
FE
01
02
04
08
10
20
40
80
7F
ENDCHAR

STARTCHAR uni17C
ENCODING 380
SWIDTH 800 0
DWIDTH 10 0
BBX 8 14 1 0
BITMAP
08
08
00
00
FE
01
02
04
08
10
20
40
80
7F
ENDCHAR

COMMENT POLISH UPPERCASE

STARTCHAR uni104
ENCODING 260
SWIDTH 800 0
DWIDTH 10 0
BBX 8 17 1 -3
BITMAP
3C
42
81
81
81
81
FF
81
81
81
81
81
81
81
02
02
01
ENDCHAR

STARTCHAR uni106
ENCODING 262
SWIDTH 800 0
DWIDTH 10 0
BBX 8 18 1 0
BITMAP
04
08
10
00
3C
42
81
81
80
80
80
80
80
80
81
81
42
3C
ENDCHAR

STARTCHAR uni118
ENCODING 280
SWIDTH 800 0
DWIDTH 10 0
BBX 8 17 1 -3
BITMAP
FF
80
80
80
80
80
FC
80
80
80
80
80
80
FF
02
02
01
ENDCHAR

STARTCHAR uni141
ENCODING 321
SWIDTH 600 0
DWIDTH 10 0
BBX 8 14 0 0
BITMAP
20
20
20
20
28
30
20
60
A0
20
20
20
20
3F
ENDCHAR

STARTCHAR uni143
ENCODING 323
SWIDTH 800 0
DWIDTH 10 0
BBX 8 18 1 0
BITMAP
04
08
10
00
81
C1
C1
A1
A1
91
91
89
89
85
85
83
83
81
ENDCHAR

STARTCHAR uniD3
ENCODING 211
SWIDTH 800 0
DWIDTH 10 0
BBX 8 18 1 0
BITMAP
04
08
10
00
3C
42
81
81
81
81
81
81
81
81
81
81
42
3C
ENDCHAR

STARTCHAR uni15A
ENCODING 346
SWIDTH 800 0
DWIDTH 10 0
BBX 8 18 1 0
BITMAP
04
08
10
00
3C
42
81
80
80
40
3C
02
01
01
81
81
42
3C
ENDCHAR

STARTCHAR uni179
ENCODING 377
SWIDTH 800 0
DWIDTH 10 0
BBX 8 18 1 0
BITMAP
04
08
10
00
FF
01
01
02
02
04
08
10
20
40
40
80
80
FF
ENDCHAR

STARTCHAR uni17B
ENCODING 379
SWIDTH 800 0
DWIDTH 10 0
BBX 8 18 1 0
BITMAP
08
08
00
00
FF
01
01
02
02
04
08
10
20
40
40
80
80
FF
ENDCHAR

COMMENT DINGBATS

STARTCHAR uni2713
ENCODING 10003
SWIDTH 800 0
DWIDTH 10 0
BBX 8 11 1 0
BITMAP
01
01
02
02
04
04
08
08
90
50
20
ENDCHAR

COMMENT GEOMETRIC

STARTCHAR uni25B6
ENCODING 9654
SWIDTH 800 0
DWIDTH 10 0
BBX 8 15 1 0
BITMAP
80
C0
E0
F0
F8
FC
FE
FF
FE
FC
F8
F0
E0
C0
80
ENDCHAR

STARTCHAR uni25B8
ENCODING 9656
SWIDTH 500 0
DWIDTH 10 0
BBX 5 9 3 2
BITMAP
80
C0
E0
F0
F8
f0
E0
C0
80
ENDCHAR

COMMENT BOX DRAWING

STARTCHAR uni2500
ENCODING 9472
SWIDTH 1000 0
DWIDTH 10 0
BBX 10 1 0 8
BITMAP
FFFF
ENDCHAR

STARTCHAR uni2501
ENCODING 9473
SWIDTH 1000 0
DWIDTH 10 0
BBX 10 2 0 8
BITMAP
FFFF
FFFF
ENDCHAR

STARTCHAR uni2502
ENCODING 9474
SWIDTH 100 0
DWIDTH 10 0
BBX 1 24 5 -5
BITMAP
80
80
80
80
80
80
80
80
80
80
80
80
80
80
80
80
80
80
80
80
80
80
80
80
ENDCHAR

STARTCHAR uni2504
ENCODING 9476
SWIDTH 1000 0
DWIDTH 10 0
BBX 10 1 0 6
BITMAP
3333
ENDCHAR

STARTCHAR uni250C
ENCODING 9484
SWIDTH 500 0
DWIDTH 10 0
BBX 5 12 5 -5
BITMAP
FF
80
80
80
80
80
80
80
80
80
80
80
ENDCHAR

STARTCHAR uni2510
ENCODING 9488
SWIDTH 500 0
DWIDTH 10 0
BBX 5 12 0 -5
BITMAP
FF
08
08
08
08
08
08
08
08
08
08
08
ENDCHAR

STARTCHAR uni2514
ENCODING 9492
SWIDTH 500 0
DWIDTH 10 0
BBX 5 12 5 6
BITMAP
80
80
80
80
80
80
80
80
80
80
80
FF
ENDCHAR

STARTCHAR uni2518
ENCODING 9496
SWIDTH 500 0
DWIDTH 10 0
BBX 5 12 0 6
BITMAP
08
08
08
08
08
08
08
08
08
08
08
FF
ENDCHAR

COMMENT MISCELLANEOUS

STARTCHAR uni2691
ENCODING 9873
SWIDTH 800 0
DWIDTH 10 0
BBX 8 15 1 0
BITMAP
FF
FF
FF
FF
FF
FF
80
80
80
80
80
80
80
80
80
ENDCHAR

COMMENT ARROWS

STARTCHAR uni2191
ENCODING 8593
SWIDTH 700 0
DWIDTH 10 0
BBX 7 14 0 0
BITMAP
10
38
54
92
10
10
10
10
10
10
10
10
10
10
ENDCHAR

STARTCHAR uni2193
ENCODING 8595
SWIDTH 700 0
DWIDTH 10 0
BBX 7 14 0 0
BITMAP
10
10
10
10
10
10
10
10
10
10
92
54
38
10
ENDCHAR

COMMENT DEDICATED

STARTCHAR uniE000
ENCODING 57344
SWIDTH 800 0
DWIDTH 10 0
BBX 8 10 0 0
BITMAP
04
08
10
20
C0
81
BD
BD
81
FF
ENDCHAR
ENDFONT
